999
FreeCAD v1.0 39109 (Git)
  0
SECTION
  2
HEADER
  9
$ACADVER
  1
AC1014
  9
$ACADMAINTVER
 70
     9
  9
$DWGCODEPAGE
  3
ANSI_1252
  9
$TEXTSTYLE
  7
STANDARD
  9
$DIMSTYLE
  2
STANDARD
  9
$DIMTXSTY
  7
STANDARD
  9
$CMLSTYLE
  2
STANDARD
  9
$LUNITS
 70
2
  9
$INSUNITS
 70
4
  9
$PEXTMAX
 10
50
 20
50
 30
50
  9
$PEXTMIN
 10
0
 20
0
 30
0
  9
$HANDSEED
  5
FFFF
  0
ENDSEC
  0
SECTION
  2
CLASSES
  0
CLASS
  1
ACDBDICTIONARYWDFLT
  2
AcDbDictionaryWithDefault
  3
ObjectDBX Classes
 90
        0
280
     0
281
     0
  0
CLASS
  1
XRECORD
  2
AcDbXrecord
  3
ObjectDBX Classes
 90
        0
280
     0
281
     0
  0
CLASS
  1
LWPOLYLINE
  2
AcDbPolyline
  3
ObjectDBX Classes
 90
        0
280
     0
281
     1
  0
ENDSEC
  0
SECTION
  2
TABLES
  0
TABLE
  2
VPORT
  5
20
330
0
100
AcDbSymbolTable
 70
     1
  0
VPORT
  5
21
330
20
100
AcDbSymbolTableRecord
100
AcDbViewportTableRecord
  2
*ACTIVE
 70
     0
  0
ENDTAB
  0
TABLE
  2
LTYPE
  5
22
330
0
100
AcDbSymbolTable
 70
     1
  0
LTYPE
  5
23
330
21
100
AcDbSymbolTableRecord
100
AcDbLinetypeTableRecord
  2
BYBLOCK
 70
     0
  3

 72
    65
 73
     0
 40
0.0
  0
LTYPE
  5
24
330
21
100
AcDbSymbolTableRecord
100
AcDbLinetypeTableRecord
  2
BYLAYER
 70
     0
  3

 72
    65
 73
     0
 40
0.0
  0
LTYPE
  5
25
330
21
100
AcDbSymbolTableRecord
100
AcDbLinetypeTableRecord
  2
CONTINUOUS
 70
     0
  3
Solid line
 72
    65
 73
     0
 40
0.0
  0
ENDTAB
  0
TABLE
  2
LAYER
  5
A4E
330
0
100
AcDbSymbolTable
 70
3
  0
LAYER
  5
A4F
330
A4E
100
AcDbSymbolTableRecord
100
AcDbLayerTableRecord
  2
0
 70
   0
 62
   7
  6
CONTINUOUS
  0
LAYER
  5
A50
330
A4E
100
AcDbSymbolTableRecord
100
AcDbLayerTableRecord
  2
none
 70
    0
 62
    7
  6
CONTINUOUS
  0
LAYER
  5
A51
330
A4E
100
AcDbSymbolTableRecord
100
AcDbLayerTableRecord
  2
Shape2DView008
 70
    0
 62
    7
  6
CONTINUOUS
  0
ENDTAB
  0
TABLE
  2
STYLE
  5
70
330
0
100
AcDbSymbolTable
 70
     2
  0
STYLE
  5
71
330
70
100
AcDbSymbolTableRecord
100
AcDbTextStyleTableRecord
  2
STANDARD
 70
     0
 40
0.0
 41
1.0
 50
0.0
 71
     0
 42
2.5
  3
arial.ttf
  4

  0
STYLE
  5
72
330
70
100
AcDbSymbolTableRecord
100
AcDbTextStyleTableRecord
  2
ANNOTATIVE
 70
     0
 40
0.0
 41
1.0
 50
0.0
 71
     0
 42
2.5
  3
arial.ttf
  4

  0
ENDTAB
  0
TABLE
  2
VIEW
  5
73
330
0
100
AcDbSymbolTable
 70
     0
  0
ENDTAB
  0
TABLE
  2
UCS
  5
74
330
0
100
AcDbSymbolTable
 70
     0
  0
ENDTAB
  0
TABLE
  2
APPID
  5
75
330
0
100
AcDbSymbolTable
 70
     2
  0
APPID
  5
76
330
75
100
AcDbSymbolTableRecord
100
AcDbRegAppTableRecord
  2
ACAD
 70
     0
  0
APPID
  5
77
330
75
100
AcDbSymbolTableRecord
100
AcDbRegAppTableRecord
  2
ACADANNOTATIVE
 70
     0
  0
ENDTAB
  0
TABLE
  2
DIMSTYLE
  5
78
330
0
100
AcDbSymbolTable
 70
     2
  0
DIMSTYLE
105
79
330
78
100
AcDbSymbolTableRecord
100
AcDbDimStyleTableRecord
  2
STANDARD
 70
     0
  3

  4

  5

  6

  7

 40
0.0
 41
2.5
 42
0.625
 43
3.75
 44
1.25
 45
0.0
 46
0.0
 47
0.0
 48
0.0
140
2.5
141
2.5
142
0.0
143
0.03937007874016
144
1.0
145
0.0
146
1.0
147
0.625
 71
     0
 72
     0
 73
     0
 74
     0
 75
     0
 76
     0
 77
     1
 78
     8
170
     0
171
     3
172
     1
173
     0
174
     0
175
     0
176
     0
177
     0
178
     0
270
     2
271
     2
272
     2
273
     2
274
     3
340
71
275
     0
280
     0
281
     0
282
     0
283
     0
284
     8
285
     0
286
     0
287
     3
288
     0
  0
ENDTAB
  0
TABLE
  2
BLOCK_RECORD
  5
A01
330
0
100
AcDbSymbolTable
  70
5
  0
BLOCK_RECORD
  5
A02
330
A01
100
AcDbSymbolTableRecord
100
AcDbBlockTableRecord
  2
*MODEL_SPACE
  0
BLOCK_RECORD
  5
A03
330
A01
100
AcDbSymbolTableRecord
100
AcDbBlockTableRecord
  2
*PAPER_SPACE
  0
ENDTAB
  0
ENDSEC
  0
SECTION
  2
BLOCKS
  0
BLOCK
  5
A04
330
A02
100
AcDbEntity
  8
0
100
AcDbBlockBegin
  2
*MODEL_SPACE
 70
   0
 10
0
 20
0
 30
0
  3
*MODEL_SPACE
  1
 
  0
ENDBLK
  5
A05
330
A02
100
AcDbEntity
  8
0
100
AcDbBlockEnd
  0
BLOCK
  5
A06
330
A03
100
AcDbEntity
 67
1
  8
0
100
AcDbBlockBegin
  2
*PAPER_SPACE
 70
   0
 10
0
 20
0
 30
0
  3
*PAPER_SPACE
  1
 
  0
ENDBLK
  5
A07
330
A03
100
AcDbEntity
 67
    1
  8
0
100
AcDbBlockEnd
  0
ENDSEC
  0
SECTION
  2
ENTITIES
  0
LINE
  5
A08
330
A02
100
AcDbEntity
  8
Shape2DView008
100
AcDbLine
 10
-74.614977591
 20
50.154012451
 30
0.000000000
 11
-74.301265707
 21
50.221453002
 31
0.000000000
  0
LINE
  5
A09
330
A02
100
AcDbEntity
  8
Shape2DView008
100
AcDbLine
 10
-74.614977591
 20
-74.816097868
 30
0.000000000
 11
-74.301265707
 21
-74.748657317
 31
0.000000000
  0
LINE
  5
A0A
330
A02
100
AcDbEntity
  8
Shape2DView008
100
AcDbLine
 10
-74.614977591
 20
50.154012451
 30
0.000000000
 11
-74.614977591
 21
-74.816097868
 31
0.000000000
  0
LINE
  5
A0B
330
A02
100
AcDbEntity
  8
Shape2DView008
100
AcDbLine
 10
-74.301265707
 20
50.221453002
 30
0.000000000
 11
-74.301265707
 21
-74.748657317
 31
0.000000000
  0
LINE
  5
A0C
330
A02
100
AcDbEntity
  8
Shape2DView008
100
AcDbLine
 10
-49.743318394
 20
75.092711740
 30
0.000000000
 11
-49.429606510
 21
75.160152291
 31
0.000000000
  0
LINE
  5
A0D
330
A02
100
AcDbEntity
  8
Shape2DView008
100
AcDbLine
 10
-49.743318394
 20
75.092711740
 30
0.000000000
 11
-74.614977591
 21
50.154012451
 31
0.000000000
  0
LINE
  5
A0E
330
A02
100
AcDbEntity
  8
Shape2DView008
100
AcDbLine
 10
-49.429606510
 20
75.160152291
 30
0.000000000
 11
-74.301265707
 21
50.221453002
 31
0.000000000
  0
LINE
  5
A0F
330
A02
100
AcDbEntity
  8
Shape2DView008
100
AcDbLine
 10
-74.614977591
 20
-74.816097868
 30
0.000000000
 11
49.743318394
 21
-75.092711740
 31
0.000000000
  0
LINE
  5
A10
330
A02
100
AcDbEntity
  8
Shape2DView008
100
AcDbLine
 10
49.743318394
 20
-75.092711740
 30
0.000000000
 11
50.057030277
 21
-75.025271189
 31
0.000000000
  0
LINE
  5
A11
330
A02
100
AcDbEntity
  8
Shape2DView008
100
AcDbLine
 10
-74.301265707
 20
-74.748657317
 30
0.000000000
 11
50.057030277
 21
-75.025271189
 31
0.000000000
  0
LINE
  5
A12
330
A02
100
AcDbEntity
  8
Shape2DView008
100
AcDbLine
 10
-35.600963997
 20
-31.863171910
 30
0.000000000
 11
-32.830590140
 21
-31.869334135
 31
0.000000000
  0
LINE
  5
A13
330
A02
100
AcDbEntity
  8
Shape2DView008
100
AcDbLine
 10
-32.830590140
 20
-31.869334135
 30
0.000000000
 11
-32.830590140
 21
-37.899737169
 31
0.000000000
  0
LINE
  5
A14
330
A02
100
AcDbEntity
  8
Shape2DView008
100
AcDbLine
 10
-2.720630539
 20
-67.977688434
 30
0.000000000
 11
3.034342422
 21
-67.990489392
 31
0.000000000
  0
LINE
  5
A15
330
A02
100
AcDbEntity
  8
Shape2DView008
100
AcDbLine
 10
3.034342422
 20
-67.990489392
 30
0.000000000
 11
3.034342422
 21
-71.021609778
 31
0.000000000
  0
ELLIPSE
  5
A16
330
A02
100
AcDbEntity
  8
Shape2DView008
100
AcDbEllipse
 10
0.000000000
 20
-34.991630889
 30
0.000000000
 11
0.525435893
 21
-2.444159799
 31
0.000000000
 40
0.994628478
 41
1.357933595
 42
3.109325857
  0
ELLIPSE
  5
A17
330
A02
100
AcDbEntity
  8
Shape2DView008
100
AcDbEllipse
 10
0.000000000
 20
-34.991630889
 30
0.000000000
 11
0.525435893
 21
-2.444159799
 31
0.000000000
 40
0.994628478
 41
0.032266797
 42
1.357933595
  0
LINE
  5
A18
330
A02
100
AcDbEntity
  8
Shape2DView008
100
AcDbLine
 10
35.914675880
 20
-32.022246284
 30
0.000000000
 11
33.144302023
 21
-32.016084058
 31
0.000000000
  0
LINE
  5
A19
330
A02
100
AcDbEntity
  8
Shape2DView008
100
AcDbLine
 10
35.914675880
 20
-38.052649318
 30
0.000000000
 11
35.914675880
 21
-32.022246284
 31
0.000000000
  0
ELLIPSE
  5
A1A
330
A02
100
AcDbEntity
  8
Shape2DView008
100
AcDbEllipse
 10
-64.666313912
 20
2.143360979
 30
0.000000000
 11
1.050871786
 21
-4.888319598
 31
0.000000000
 40
0.994628478
 41
2.928729921
 42
3.109325857
  0
LINE
  5
A1B
330
A02
100
AcDbEntity
  8
Shape2DView008
100
AcDbLine
 10
-64.666313912
 20
7.142165391
 30
0.000000000
 11
-44.768986554
 21
7.097907172
 31
0.000000000
  0
ELLIPSE
  5
A1C
330
A02
100
AcDbEntity
  8
Shape2DView008
100
AcDbEllipse
 10
-44.768986554
 20
2.099102759
 30
0.000000000
 11
1.050871786
 21
-4.888319598
 31
0.000000000
 40
0.994628478
 41
0.032266797
 42
2.928729921
  0
LINE
  5
A1D
330
A02
100
AcDbEntity
  8
Shape2DView008
100
AcDbLine
 10
3.034342422
 20
-1.938132794
 30
0.000000000
 11
3.034342422
 21
1.092987592
 31
0.000000000
  0
LINE
  5
A1E
330
A02
100
AcDbEntity
  8
Shape2DView008
100
AcDbLine
 10
3.034342422
 20
1.092987592
 30
0.000000000
 11
-2.720630539
 21
1.105788551
 31
0.000000000
  0
LINE
  5
A1F
330
A02
100
AcDbEntity
  8
Shape2DView008
100
AcDbLine
 10
50.057030277
 20
74.938861194
 30
0.000000000
 11
-49.429606510
 21
75.160152291
 31
0.000000000
  0
LINE
  5
A20
330
A02
100
AcDbEntity
  8
Shape2DView008
100
AcDbLine
 10
50.057030277
 20
74.938861194
 30
0.000000000
 11
50.057030277
 21
-75.025271189
 31
0.000000000
  0
LINE
  5
A21
330
A02
100
AcDbEntity
  8
Shape2DView008
100
AcDbLine
 10
-35.600963997
 20
-37.893574944
 30
0.000000000
 11
-35.600963997
 21
-31.795033560
 31
0.000000000
  0
LINE
  5
A22
330
A02
100
AcDbEntity
  8
Shape2DView008
100
AcDbLine
 10
-32.516878256
 20
-37.900434968
 30
0.000000000
 11
-35.600963997
 21
-37.893574944
 31
0.000000000
  0
LINE
  5
A23
330
A02
100
AcDbEntity
  8
Shape2DView008
100
AcDbLine
 10
-35.600963997
 20
-31.795033560
 30
0.000000000
 11
-32.516878256
 21
-31.801893584
 31
0.000000000
  0
LINE
  5
A24
330
A02
100
AcDbEntity
  8
Shape2DView008
100
AcDbLine
 10
-32.516878256
 20
-31.801893584
 30
0.000000000
 11
-32.516878256
 21
-37.900434968
 31
0.000000000
  0
LINE
  5
A25
330
A02
100
AcDbEntity
  8
Shape2DView008
100
AcDbLine
 10
-2.720630539
 20
-71.008808820
 30
0.000000000
 11
-2.720630539
 21
-67.909550084
 31
0.000000000
  0
LINE
  5
A26
330
A02
100
AcDbEntity
  8
Shape2DView008
100
AcDbLine
 10
3.348054305
 20
-71.022307577
 30
0.000000000
 11
-2.720630539
 21
-71.008808820
 31
0.000000000
  0
LINE
  5
A27
330
A02
100
AcDbEntity
  8
Shape2DView008
100
AcDbLine
 10
-2.720630539
 20
-67.909550084
 30
0.000000000
 11
3.348054305
 21
-67.923048841
 31
0.000000000
  0
LINE
  5
A28
330
A02
100
AcDbEntity
  8
Shape2DView008
100
AcDbLine
 10
3.348054305
 20
-67.923048841
 30
0.000000000
 11
3.348054305
 21
-71.022307577
 31
0.000000000
  0
ELLIPSE
  5
A29
330
A02
100
AcDbEntity
  8
Shape2DView008
100
AcDbEllipse
 10
0.313711883
 20
-34.924190338
 30
0.000000000
 11
6.305230714
 21
-29.329917587
 31
0.000000000
 40
0.994628478
 41
1.357933595
 42
3.141592654
  0
ELLIPSE
  5
A2A
330
A02
100
AcDbEntity
  8
Shape2DView008
100
AcDbEllipse
 10
0.313711883
 20
-34.924190338
 30
0.000000000
 11
6.305230714
 21
-29.329917587
 31
0.000000000
 40
0.994628478
 41
3.141592654
 42
0.000000000
  0
ELLIPSE
  5
A2B
330
A02
100
AcDbEntity
  8
Shape2DView008
100
AcDbEllipse
 10
0.313711883
 20
-34.924190338
 30
0.000000000
 11
6.305230714
 21
-29.329917587
 31
0.000000000
 40
0.994628478
 41
0.000000000
 42
1.357933595
  0
LINE
  5
A2C
330
A02
100
AcDbEntity
  8
Shape2DView008
100
AcDbLine
 10
33.144302023
 20
-31.947945709
 30
0.000000000
 11
33.144302023
 21
-38.046487092
 31
0.000000000
  0
LINE
  5
A2D
330
A02
100
AcDbEntity
  8
Shape2DView008
100
AcDbLine
 10
36.228387764
 20
-31.954805733
 30
0.000000000
 11
33.144302023
 21
-31.947945709
 31
0.000000000
  0
LINE
  5
A2E
330
A02
100
AcDbEntity
  8
Shape2DView008
100
AcDbLine
 10
33.144302023
 20
-38.046487092
 30
0.000000000
 11
36.228387764
 21
-38.053347116
 31
0.000000000
  0
LINE
  5
A2F
330
A02
100
AcDbEntity
  8
Shape2DView008
100
AcDbLine
 10
36.228387764
 20
-38.053347116
 30
0.000000000
 11
36.228387764
 21
-31.954805733
 31
0.000000000
  0
ELLIPSE
  5
A30
330
A02
100
AcDbEntity
  8
Shape2DView008
100
AcDbEllipse
 10
-64.352602028
 20
2.210801530
 30
0.000000000
 11
1.050871786
 21
-4.888319598
 31
0.000000000
 40
0.994628478
 41
2.928729921
 42
3.141592654
  0
ELLIPSE
  5
A31
330
A02
100
AcDbEntity
  8
Shape2DView008
100
AcDbEllipse
 10
-64.352602028
 20
2.210801530
 30
0.000000000
 11
1.050871786
 21
-4.888319598
 31
0.000000000
 40
0.994628478
 41
3.141592654
 42
6.070322575
  0
LINE
  5
A32
330
A02
100
AcDbEntity
  8
Shape2DView008
100
AcDbLine
 10
-64.352602028
 20
7.209605942
 30
0.000000000
 11
-44.455274671
 21
7.165347723
 31
0.000000000
  0
LINE
  5
A33
330
A02
100
AcDbEntity
  8
Shape2DView008
100
AcDbLine
 10
-64.352602028
 20
-2.788002883
 30
0.000000000
 11
-44.455274671
 21
-2.832261103
 31
0.000000000
  0
ELLIPSE
  5
A34
330
A02
100
AcDbEntity
  8
Shape2DView008
100
AcDbEllipse
 10
-44.455274671
 20
2.166543310
 30
0.000000000
 11
1.050871786
 21
-4.888319598
 31
0.000000000
 40
0.994628478
 41
6.070322575
 42
0.000000000
  0
ELLIPSE
  5
A35
330
A02
100
AcDbEntity
  8
Shape2DView008
100
AcDbEllipse
 10
-44.455274671
 20
2.166543310
 30
0.000000000
 11
1.050871786
 21
-4.888319598
 31
0.000000000
 40
0.994628478
 41
0.000000000
 42
2.928729921
  0
LINE
  5
A36
330
A02
100
AcDbEntity
  8
Shape2DView008
100
AcDbLine
 10
-2.720630539
 20
-1.925331836
 30
0.000000000
 11
3.348054305
 21
-1.938830593
 31
0.000000000
  0
LINE
  5
A37
330
A02
100
AcDbEntity
  8
Shape2DView008
100
AcDbLine
 10
-2.720630539
 20
1.173926900
 30
0.000000000
 11
-2.720630539
 21
-1.925331836
 31
0.000000000
  0
LINE
  5
A38
330
A02
100
AcDbEntity
  8
Shape2DView008
100
AcDbLine
 10
3.348054305
 20
-1.938830593
 30
0.000000000
 11
3.348054305
 21
1.160428143
 31
0.000000000
  0
LINE
  5
A39
330
A02
100
AcDbEntity
  8
Shape2DView008
100
AcDbLine
 10
3.348054305
 20
1.160428143
 30
0.000000000
 11
-2.720630539
 21
1.173926900
 31
0.000000000
  0
LINE
  5
A3A
330
A02
100
AcDbEntity
  8
Shape2DView008
100
AcDbLine
 10
-34.506610992
 20
58.131023623
 30
0.000000000
 11
-34.506610992
 21
13.141783908
 31
0.000000000
  0
LINE
  5
A3B
330
A02
100
AcDbEntity
  8
Shape2DView008
100
AcDbLine
 10
35.134034759
 20
57.976119855
 30
0.000000000
 11
-34.506610992
 21
58.131023623
 31
0.000000000
  0
LINE
  5
A3C
330
A02
100
AcDbEntity
  8
Shape2DView008
100
AcDbLine
 10
-34.506610992
 20
13.141783908
 30
0.000000000
 11
35.134034759
 21
12.986880140
 31
0.000000000
  0
LINE
  5
A3D
330
A02
100
AcDbEntity
  8
Shape2DView008
100
AcDbLine
 10
35.134034759
 20
12.986880140
 30
0.000000000
 11
35.134034759
 21
57.976119855
 31
0.000000000
  0
LINE
  5
A3E
330
A02
100
AcDbEntity
  8
Shape2DView008
100
AcDbLine
 10
-32.516878256
 20
-31.801893584
 30
0.000000000
 11
-32.830590140
 21
-31.869334135
 31
0.000000000
  0
LINE
  5
A3F
330
A02
100
AcDbEntity
  8
Shape2DView008
100
AcDbLine
 10
3.348054305
 20
-67.923048841
 30
0.000000000
 11
3.034342422
 21
-67.990489392
 31
0.000000000
  0
ELLIPSE
  5
A40
330
A02
100
AcDbEntity
  8
Shape2DView008
100
AcDbEllipse
 10
0.156855942
 20
-34.957910614
 30
0.000000000
 11
0.525435893
 21
-2.444159799
 31
0.000000000
 40
0.994628478
 41
1.357933595
 42
3.141592654
  0
ELLIPSE
  5
A41
330
A02
100
AcDbEntity
  8
Shape2DView008
100
AcDbEllipse
 10
0.156855942
 20
-34.957910614
 30
0.000000000
 11
0.525435893
 21
-2.444159799
 31
0.000000000
 40
0.994628478
 41
3.141592654
 42
0.000000000
  0
ELLIPSE
  5
A42
330
A02
100
AcDbEntity
  8
Shape2DView008
100
AcDbEllipse
 10
0.156855942
 20
-34.957910614
 30
0.000000000
 11
0.525435893
 21
-2.444159799
 31
0.000000000
 40
0.994628478
 41
0.000000000
 42
1.357933595
  0
LINE
  5
A43
330
A02
100
AcDbEntity
  8
Shape2DView008
100
AcDbLine
 10
36.228387764
 20
-31.954805733
 30
0.000000000
 11
35.914675880
 21
-32.022246284
 31
0.000000000
  0
LINE
  5
A44
330
A02
100
AcDbEntity
  8
Shape2DView008
100
AcDbLine
 10
3.348054305
 20
1.160428143
 30
0.000000000
 11
3.034342422
 21
1.092987592
 31
0.000000000
  0
ELLIPSE
  5
A45
330
A02
100
AcDbEntity
  8
Shape2DView008
100
AcDbEllipse
 10
0.156855942
 20
-34.957910614
 30
0.000000000
 11
6.305230714
 21
-29.329917587
 31
0.000000000
 40
0.994628478
 41
1.357933595
 42
3.138904217
  0
ELLIPSE
  5
A46
330
A02
100
AcDbEntity
  8
Shape2DView008
100
AcDbEllipse
 10
0.156855942
 20
-34.957910614
 30
0.000000000
 11
6.305230714
 21
-29.329917587
 31
0.000000000
 40
0.994628478
 41
0.002688436
 42
1.357933595
  0
LINE
  5
A47
330
A02
100
AcDbEntity
  8
Shape2DView008
100
AcDbLine
 10
35.134034759
 20
57.976119855
 30
0.000000000
 11
34.977178817
 21
57.942399579
 31
0.000000000
  0
LINE
  5
A48
330
A02
100
AcDbEntity
  8
Shape2DView008
100
AcDbLine
 10
34.977178817
 20
57.942399579
 30
0.000000000
 11
-34.506610992
 21
58.096954448
 31
0.000000000
  0
LINE
  5
A49
330
A02
100
AcDbEntity
  8
Shape2DView008
100
AcDbLine
 10
34.977178817
 20
12.987229039
 30
0.000000000
 11
34.977178817
 21
57.942399579
 31
0.000000000
  0
LINE
  5
A4A
330
A02
100
AcDbEntity
  8
Shape2DView008
100
AcDbLine
 10
-64.352602028
 20
7.209605942
 30
0.000000000
 11
-64.666313912
 21
7.142165391
 31
0.000000000
  0
LINE
  5
A4B
330
A02
100
AcDbEntity
  8
Shape2DView008
100
AcDbLine
 10
-44.455274671
 20
7.165347723
 30
0.000000000
 11
-44.768986554
 21
7.097907172
 31
0.000000000
  0
LINE
  5
A4C
330
A02
100
AcDbEntity
  8
Shape2DView008
100
AcDbLine
 10
2.644021861
 20
-34.963442891
 30
0.000000000
 11
2.487165920
 21
-34.997163167
 31
0.000000000
  0
LINE
  5
A4D
330
A02
100
AcDbEntity
  8
Shape2DView008
100
AcDbLine
 10
30.159702920
 20
-34.990577668
 30
0.000000000
 11
30.002846978
 21
-35.024297943
 31
0.000000000
  0
ENDSEC
  0
SECTION
  2
OBJECTS
  0
DICTIONARY
  5
F000
330
0
100
AcDbDictionary
  3
ACAD_GROUP
350
F001
  0
DICTIONARY
  5
F001
330
F000
100
AcDbDictionary
  0
ENDSEC
  0
EOF